<?xml version="1.0" encoding="UTF-8"?>
<svg width="215px" height="114px" viewBox="0 0 215 114" version="1.1" xmlns="http://www.w3.org/2000/svg" xmlns:xlink="http://www.w3.org/1999/xlink">
    <!-- Generator: Sketch 51.3 (57544) - http://www.bohemiancoding.com/sketch -->
    <title>Group</title>
    <desc>Created with Sketch.</desc>
    <defs></defs>
    <g id="Page-1" stroke="none" stroke-width="1" fill="none" fill-rule="evenodd">
        <g id="Mobile" transform="translate(-45.000000, -312.000000)">
            <g id="Group" transform="translate(45.000000, 312.000000)">
                <path d="M26.798,33 C26.5579988,33 26.3480009,32.9100009 26.168,32.73 C25.9879991,32.5499991 25.898,32.3400012 25.898,32.1 L25.898,8.736 C25.898,8.47199868 25.9819992,8.2500009 26.15,8.07 C26.3180008,7.8899991 26.5339987,7.8 26.798,7.8 L43.79,7.8 C44.0540013,7.8 44.2759991,7.8899991 44.456,8.07 C44.6360009,8.2500009 44.726,8.47199868 44.726,8.736 L44.726,12.3 C44.726,12.5640013 44.6360009,12.7799992 44.456,12.948 C44.2759991,13.1160008 44.0540013,13.2 43.79,13.2 L32.414,13.2 L32.414,17.772 L42.998,17.772 C43.2620013,17.772 43.4839991,17.8619991 43.664,18.042 C43.8440009,18.2220009 43.934,18.4439987 43.934,18.708 L43.934,21.984 C43.934,22.2480013 43.8440009,22.4699991 43.664,22.65 C43.4839991,22.8300009 43.2620013,22.92 42.998,22.92 L32.414,22.92 L32.414,27.6 L44.078,27.6 C44.3420013,27.6 44.5639991,27.6899991 44.744,27.87 C44.9240009,28.0500009 45.014,28.2719987 45.014,28.536 L45.014,32.1 C45.014,32.3640013 44.9240009,32.5799992 44.744,32.748 C44.5639991,32.9160008 44.3420013,33 44.078,33 L26.798,33 Z M49.91,33 C49.6699988,33 49.4600009,32.9100009 49.28,32.73 C49.0999991,32.5499991 49.01,32.3400012 49.01,32.1 L49.01,8.736 C49.01,8.47199868 49.0939992,8.2500009 49.262,8.07 C49.4300008,7.8899991 49.6459987,7.8 49.91,7.8 L53.978,7.8 C54.5300028,7.8 54.9379987,8.02799772 55.202,8.484 L63.698,21.912 L63.698,8.736 C63.698,8.47199868 63.7819992,8.2500009 63.95,8.07 C64.1180008,7.8899991 64.3339987,7.8 64.598,7.8 L69.17,7.8 C69.4340013,7.8 69.6499992,7.8899991 69.818,8.07 C69.9860008,8.2500009 70.07,8.47199868 70.07,8.736 L70.07,32.064 C70.07,32.3280013 69.9860008,32.5499991 69.818,32.73 C69.6499992,32.9100009 69.4340013,33 69.17,33 L65.102,33 C64.5499972,33 64.1420013,32.7720023 63.878,32.316 L55.418,19.428 L55.418,32.1 C55.418,32.3640013 55.3280009,32.5799992 55.148,32.748 C54.9679991,32.9160008 54.7460013,33 54.482,33 L49.91,33 Z M91.022,35.34 C90.6859983,35.34 90.416001,35.2620008 90.212,35.106 C90.007999,34.9499992 89.8220008,34.7520012 89.654,34.512 L88.43,32.928 C87.5419956,33.2160014 86.5220058,33.36 85.37,33.36 C81.961983,33.36 79.2740098,32.5320083 77.306,30.876 C75.3379902,29.2199917 74.2940006,26.7840161 74.174,23.568 C74.1499999,22.8959966 74.138,21.864007 74.138,20.472 C74.138,19.079993 74.1499999,18.0360035 74.174,17.34 C74.2940006,14.1719842 75.34999,11.7300086 77.342,10.014 C79.33401,8.29799142 82.0099832,7.44 85.37,7.44 C88.7300168,7.44 91.40599,8.29799142 93.398,10.014 C95.39001,11.7300086 96.4459994,14.1719842 96.566,17.34 C96.6140002,18.732007 96.638,19.7759965 96.638,20.472 C96.638,21.1920036 96.6140002,22.2239933 96.566,23.568 C96.4219993,26.4960146 95.546008,28.7879917 93.938,30.444 L96.602,34.224 C96.6740004,34.3680007 96.71,34.4879995 96.71,34.584 L96.71,34.692 C96.71,34.8600008 96.6380007,35.0099993 96.494,35.142 C96.3499993,35.2740007 96.182001,35.34 95.99,35.34 L91.022,35.34 Z M85.37,27.96 C86.6180062,27.96 87.6139963,27.5820038 88.358,26.826 C89.1020037,26.0699962 89.4979998,24.9120078 89.546,23.352 C89.5940002,21.959993 89.618,20.964003 89.618,20.364 C89.618,19.763997 89.5940002,18.7920067 89.546,17.448 C89.4979998,15.8879922 89.1020037,14.7300038 88.358,13.974 C87.6139963,13.2179962 86.6180062,12.84 85.37,12.84 C84.1219938,12.84 83.1260037,13.2179962 82.382,13.974 C81.6379963,14.7300038 81.2420002,15.8879922 81.194,17.448 C81.1699999,18.1200034 81.158,19.0919936 81.158,20.364 C81.158,21.6600065 81.1699999,22.6559965 81.194,23.352 C81.2420002,24.9120078 81.6379963,26.0699962 82.382,26.826 C83.1260037,27.5820038 84.1219938,27.96 85.37,27.96 Z M111.398,33.36 C107.989983,33.36 105.32001,32.5320083 103.388,30.876 C101.45599,29.2199917 100.49,26.7360166 100.49,23.424 L100.49,8.736 C100.49,8.47199868 100.573999,8.2500009 100.742,8.07 C100.910001,7.8899991 101.125999,7.8 101.39,7.8 L106.322,7.8 C106.586001,7.8 106.807999,7.8899991 106.988,8.07 C107.168001,8.2500009 107.258,8.47199868 107.258,8.736 L107.258,23.352 C107.258,24.8400074 107.611996,25.9559963 108.32,26.7 C109.028004,27.4440037 110.041993,27.816 111.362,27.816 C112.682007,27.816 113.695996,27.4380038 114.404,26.682 C115.112004,25.9259962 115.466,24.8160073 115.466,23.352 L115.466,8.736 C115.466,8.47199868 115.555999,8.2500009 115.736,8.07 C115.916001,7.8899991 116.137999,7.8 116.402,7.8 L121.298,7.8 C121.562001,7.8 121.783999,7.8899991 121.964,8.07 C122.144001,8.2500009 122.234,8.47199868 122.234,8.736 L122.234,23.424 C122.234,26.7360166 121.27401,29.2199917 119.354,30.876 C117.43399,32.5320083 114.782017,33.36 111.398,33.36 Z M127.814,33 C127.573999,33 127.364001,32.9100009 127.184,32.73 C127.003999,32.5499991 126.914,32.3400012 126.914,32.1 L126.914,8.736 C126.914,8.47199868 126.997999,8.2500009 127.166,8.07 C127.334001,7.8899991 127.549999,7.8 127.814,7.8 L144.806,7.8 C145.070001,7.8 145.291999,7.8899991 145.472,8.07 C145.652001,8.2500009 145.742,8.47199868 145.742,8.736 L145.742,12.3 C145.742,12.5640013 145.652001,12.7799992 145.472,12.948 C145.291999,13.1160008 145.070001,13.2 144.806,13.2 L133.43,13.2 L133.43,17.772 L144.014,17.772 C144.278001,17.772 144.499999,17.8619991 144.68,18.042 C144.860001,18.2220009 144.95,18.4439987 144.95,18.708 L144.95,21.984 C144.95,22.2480013 144.860001,22.4699991 144.68,22.65 C144.499999,22.8300009 144.278001,22.92 144.014,22.92 L133.43,22.92 L133.43,27.6 L145.094,27.6 C145.358001,27.6 145.579999,27.6899991 145.76,27.87 C145.940001,28.0500009 146.03,28.2719987 146.03,28.536 L146.03,32.1 C146.03,32.3640013 145.940001,32.5799992 145.76,32.748 C145.579999,32.9160008 145.358001,33 145.094,33 L127.814,33 Z M129.686,6 C129.325998,6 129.146,5.83200168 129.146,5.496 C129.146,5.27999892 129.229999,5.08800084 129.398,4.92 L133.142,0.996 C133.382001,0.7559988 133.591999,0.58800048 133.772,0.492 C133.952001,0.39599952 134.161999,0.348 134.402,0.348 L137.642,0.348 C137.882001,0.348 138.091999,0.39599952 138.272,0.492 C138.452001,0.58800048 138.661999,0.7559988 138.902,0.996 L142.646,4.92 C142.814001,5.08800084 142.898,5.27999892 142.898,5.496 C142.898,5.83200168 142.718002,6 142.358,6 L140.45,6 C139.921997,6 139.502002,5.91600084 139.19,5.748 L136.022,4.02 L132.854,5.748 C132.541998,5.91600084 132.122003,6 131.594,6 L129.686,6 Z M156.506,33 C156.241999,33 156.020001,32.9160008 155.84,32.748 C155.659999,32.5799992 155.57,32.3640013 155.57,32.1 L155.57,13.668 L149.234,13.668 C148.969999,13.668 148.748001,13.5840008 148.568,13.416 C148.387999,13.2479992 148.298,13.0320013 148.298,12.768 L148.298,8.736 C148.298,8.47199868 148.387999,8.2500009 148.568,8.07 C148.748001,7.8899991 148.969999,7.8 149.234,7.8 L168.782,7.8 C169.046001,7.8 169.267999,7.8899991 169.448,8.07 C169.628001,8.2500009 169.718,8.47199868 169.718,8.736 L169.718,12.768 C169.718,13.0320013 169.628001,13.2479992 169.448,13.416 C169.267999,13.5840008 169.046001,13.668 168.782,13.668 L162.446,13.668 L162.446,32.1 C162.446,32.3640013 162.356001,32.5799992 162.176,32.748 C161.995999,32.9160008 161.774001,33 161.51,33 L156.506,33 Z M173.786,33 C173.545999,33 173.336001,32.9100009 173.156,32.73 C172.975999,32.5499991 172.886,32.3400012 172.886,32.1 L172.886,8.736 C172.886,8.47199868 172.969999,8.2500009 173.138,8.07 C173.306001,7.8899991 173.521999,7.8 173.786,7.8 L190.778,7.8 C191.042001,7.8 191.263999,7.8899991 191.444,8.07 C191.624001,8.2500009 191.714,8.47199868 191.714,8.736 L191.714,12.3 C191.714,12.5640013 191.624001,12.7799992 191.444,12.948 C191.263999,13.1160008 191.042001,13.2 190.778,13.2 L179.402,13.2 L179.402,17.772 L189.986,17.772 C190.250001,17.772 190.471999,17.8619991 190.652,18.042 C190.832001,18.2220009 190.922,18.4439987 190.922,18.708 L190.922,21.984 C190.922,22.2480013 190.832001,22.4699991 190.652,22.65 C190.471999,22.8300009 190.250001,22.92 189.986,22.92 L179.402,22.92 L179.402,27.6 L191.066,27.6 C191.330001,27.6 191.551999,27.6899991 191.732,27.87 C191.912001,28.0500009 192.002,28.2719987 192.002,28.536 L192.002,32.1 C192.002,32.3640013 191.912001,32.5799992 191.732,32.748 C191.551999,32.9160008 191.330001,33 191.066,33 L173.786,33 Z M1.52,69 C1.3066656,69 1.1133342,68.9133342 0.94,68.74 C0.7666658,68.5666658 0.68,68.3733344 0.68,68.16 C0.68,67.9999992 0.6933332,67.8800004 0.72,67.8 L10.04,42.16 C10.306668,41.3866628 10.839996,41 11.64,41 L17.88,41 C18.680004,41 19.213332,41.3866628 19.48,42.16 L28.8,67.8 C28.8266668,67.8800004 28.84,67.9999992 28.84,68.16 C28.84,68.3733344 28.7533342,68.5666658 28.58,68.74 C28.4066658,68.9133342 28.2133344,69 28,69 L22.8,69 C22.1599968,69 21.706668,68.7066696 21.44,68.12 L20,64.24 L9.52,64.24 L8.08,68.12 C7.813332,68.7066696 7.3600032,69 6.72,69 L1.52,69 Z M11.2,58.24 L18.32,58.24 L14.76,48.04 L11.2,58.24 Z M13.36,39 C13.0133316,39 12.7333344,38.9533338 12.52,38.86 C12.3066656,38.7666662 12.066668,38.6133344 11.8,38.4 L6.44,34 C6.306666,33.866666 6.24,33.7066676 6.24,33.52 C6.24,33.2799988 6.306666,33.0866674 6.44,32.94 C6.573334,32.7933326 6.7599988,32.72 7,32.72 L12.84,32.72 C13.1866684,32.72 13.4533324,32.7666662 13.64,32.86 C13.8266676,32.9533338 14.053332,33.1599984 14.32,33.48 L17.92,37.84 C18.053334,37.973334 18.12,38.1466656 18.12,38.36 C18.12,38.7866688 17.9066688,39 17.48,39 L13.36,39 Z M40.28,69 C40.013332,69 39.780001,68.900001 39.58,68.7 C39.379999,68.499999 39.28,68.266668 39.28,68 L39.28,42 C39.28,41.7066652 39.379999,41.4666676 39.58,41.28 C39.780001,41.0933324 40.013332,41 40.28,41 L45.88,41 C46.1733348,41 46.4133324,41.0933324 46.6,41.28 C46.7866676,41.4666676 46.88,41.7066652 46.88,42 L46.88,62.72 L58.88,62.72 C59.1733348,62.72 59.419999,62.819999 59.62,63.02 C59.820001,63.220001 59.92,63.4666652 59.92,63.76 L59.92,68 C59.92,68.2933348 59.820001,68.5333324 59.62,68.72 C59.419999,68.9066676 59.1733348,69 58.88,69 L40.28,69 Z M61.72,69 C61.5066656,69 61.3133342,68.9133342 61.14,68.74 C60.9666658,68.5666658 60.88,68.3733344 60.88,68.16 C60.88,67.9999992 60.8933332,67.8800004 60.92,67.8 L70.24,42.16 C70.506668,41.3866628 71.039996,41 71.84,41 L78.08,41 C78.880004,41 79.413332,41.3866628 79.68,42.16 L89,67.8 C89.0266668,67.8800004 89.04,67.9999992 89.04,68.16 C89.04,68.3733344 88.9533342,68.5666658 88.78,68.74 C88.6066658,68.9133342 88.4133344,69 88.2,69 L83,69 C82.3599968,69 81.906668,68.7066696 81.64,68.12 L80.2,64.24 L69.72,64.24 L68.28,68.12 C68.013332,68.7066696 67.5600032,69 66.92,69 L61.72,69 Z M71.4,58.24 L78.52,58.24 L74.96,48.04 L71.4,58.24 Z M100.48,69 C100.213332,69 99.980001,68.900001 99.78,68.7 C99.579999,68.499999 99.48,68.266668 99.48,68 L99.48,42.04 C99.48,41.7466652 99.5733324,41.500001 99.76,41.3 C99.9466676,41.099999 100.186665,41 100.48,41 L119.08,41 C119.373335,41 119.619999,41.099999 119.82,41.3 C120.020001,41.500001 120.12,41.7466652 120.12,42.04 L120.12,46.28 C120.12,46.5733348 120.020001,46.8133324 119.82,47 C119.619999,47.1866676 119.373335,47.28 119.08,47.28 L106.84,47.28 L106.84,52.84 L118.28,52.84 C118.573335,52.84 118.819999,52.939999 119.02,53.14 C119.220001,53.340001 119.32,53.5866652 119.32,53.88 L119.32,58.12 C119.32,58.4133348 119.220001,58.6533324 119.02,58.84 C118.819999,59.0266676 118.573335,59.12 118.28,59.12 L106.84,59.12 L106.84,68 C106.84,68.266668 106.746668,68.499999 106.56,68.7 C106.373332,68.900001 106.133335,69 105.84,69 L100.48,69 Z M135.72,69.4 C131.933314,69.4 128.946678,68.4800092 126.76,66.64 C124.573322,64.7999908 123.413334,62.0933512 123.28,58.52 C123.253333,57.7733296 123.24,56.6266744 123.24,55.08 C123.24,53.5333256 123.253333,52.3733372 123.28,51.6 C123.386667,48.0799824 124.553322,45.3666762 126.78,43.46 C129.006678,41.5533238 131.986648,40.6 135.72,40.6 C139.426685,40.6 142.393322,41.5533238 144.62,43.46 C146.846678,45.3666762 148.013333,48.0799824 148.12,51.6 C148.173334,53.1466744 148.2,54.3066628 148.2,55.08 C148.2,55.880004 148.173334,57.0266592 148.12,58.52 C147.986666,62.0933512 146.833344,64.7999908 144.66,66.64 C142.486656,68.4800092 139.506686,69.4 135.72,69.4 Z M135.72,63.4 C137.106674,63.4 138.213329,62.9800042 139.04,62.14 C139.866671,61.2999958 140.306666,60.013342 140.36,58.28 C140.413334,56.7333256 140.44,55.62667 140.44,54.96 C140.44,54.29333 140.413334,53.2133408 140.36,51.72 C140.306666,49.986658 139.866671,48.7000042 139.04,47.86 C138.213329,47.0199958 137.106674,46.6 135.72,46.6 C134.30666,46.6 133.186671,47.0199958 132.36,47.86 C131.533329,48.7000042 131.093334,49.986658 131.04,51.72 C131.013333,52.4666704 131,53.5466596 131,54.96 C131,56.4000072 131.013333,57.5066628 131.04,58.28 C131.093334,60.013342 131.533329,61.2999958 132.36,62.14 C133.186671,62.9800042 134.30666,63.4 135.72,63.4 Z M153.72,69 C153.453332,69 153.220001,68.900001 153.02,68.7 C152.819999,68.499999 152.72,68.266668 152.72,68 L152.72,42 C152.72,41.7066652 152.819999,41.4666676 153.02,41.28 C153.220001,41.0933324 153.453332,41 153.72,41 L159.44,41 C159.733335,41 159.973332,41.0933324 160.16,41.28 C160.346668,41.4666676 160.44,41.7066652 160.44,42 L160.44,68 C160.44,68.266668 160.346668,68.499999 160.16,68.7 C159.973332,68.900001 159.733335,69 159.44,69 L153.72,69 Z M166.88,69 C166.613332,69 166.380001,68.900001 166.18,68.7 C165.979999,68.499999 165.88,68.266668 165.88,68 L165.88,42.04 C165.88,41.7466652 165.973332,41.500001 166.16,41.3 C166.346668,41.099999 166.586665,41 166.88,41 L177.88,41 C181.400018,41 184.153323,41.799992 186.14,43.4 C188.126677,45.000008 189.12,47.2533188 189.12,50.16 C189.12,52.026676 188.686671,53.6133268 187.82,54.92 C186.953329,56.2266732 185.760008,57.2399964 184.24,57.96 L189.64,67.72 C189.72,67.8800008 189.76,68.026666 189.76,68.16 C189.76,68.3733344 189.680001,68.5666658 189.52,68.74 C189.359999,68.9133342 189.160001,69 188.92,69 L183.28,69 C182.506663,69 181.960002,68.6400036 181.64,67.92 L177.24,59.24 L173.4,59.24 L173.4,68 C173.4,68.2933348 173.300001,68.5333324 173.1,68.72 C172.899999,68.9066676 172.653335,69 172.36,69 L166.88,69 Z M177.84,53.36 C178.986672,53.36 179.859997,53.0733362 180.46,52.5 C181.060003,51.9266638 181.36,51.1333384 181.36,50.12 C181.36,49.1066616 181.060003,48.2933364 180.46,47.68 C179.859997,47.0666636 178.986672,46.76 177.84,46.76 L173.4,46.76 L173.4,53.36 L177.84,53.36 Z M194.68,69 C194.413332,69 194.180001,68.900001 193.98,68.7 C193.779999,68.499999 193.68,68.266668 193.68,68 L193.68,42.04 C193.68,41.7466652 193.773332,41.500001 193.96,41.3 C194.146668,41.099999 194.386665,41 194.68,41 L213.56,41 C213.853335,41 214.099999,41.099999 214.3,41.3 C214.500001,41.500001 214.6,41.7466652 214.6,42.04 L214.6,46 C214.6,46.2933348 214.500001,46.5333324 214.3,46.72 C214.099999,46.9066676 213.853335,47 213.56,47 L200.92,47 L200.92,52.08 L212.68,52.08 C212.973335,52.08 213.219999,52.179999 213.42,52.38 C213.620001,52.580001 213.72,52.8266652 213.72,53.12 L213.72,56.76 C213.72,57.0533348 213.620001,57.299999 213.42,57.5 C213.219999,57.700001 212.973335,57.8 212.68,57.8 L200.92,57.8 L200.92,63 L213.88,63 C214.173335,63 214.419999,63.099999 214.62,63.3 C214.820001,63.500001 214.92,63.7466652 214.92,64.04 L214.92,68 C214.92,68.2933348 214.820001,68.5333324 214.62,68.72 C214.419999,68.9066676 214.173335,69 213.88,69 L194.68,69 Z" id="Enquête-à-la-foire" fill="#300D2D"></path>
                <path d="M44.716,100.67 C44.1439971,100.097997 43.7700009,99.4380037 43.594,98.69 C43.4179991,98.0739969 43.4069992,97.3480042 43.561,96.512 C43.7150008,95.6759958 44.2759952,94.7520051 45.244,93.74 C45.4200009,93.5639991 45.606999,93.4430003 45.805,93.377 C46.003001,93.3109997 46.1899991,93.4319985 46.366,93.74 C46.5420009,94.1800022 46.8829975,94.6089979 47.389,95.027 C47.8950025,95.4450021 48.7639938,95.5220013 49.996,95.258 C50.1280007,94.6859971 50.292999,94.0920031 50.491,93.476 C50.689001,92.8599969 50.8979989,92.2220033 51.118,91.562 C52.6140075,87.2499784 54.2859908,83.9280117 56.134,81.596 C57.9820092,79.2639883 59.7639914,77.6140048 61.48,76.646 C63.1960086,75.6779952 64.7469931,75.2049999 66.133,75.227 C67.5190069,75.2490001 68.5199969,75.4359982 69.136,75.788 C70.1040048,76.3160026 70.7639982,77.2179936 71.116,78.494 C71.4680018,77.8339967 71.8089984,77.1850032 72.139,76.547 C72.4690017,75.9089968 72.7769986,75.3590023 73.063,74.897 C73.3490014,74.4349977 73.6239987,74.0830012 73.888,73.841 C74.1520013,73.5989988 74.3939989,73.5219996 74.614,73.61 C75.1420026,73.8300011 75.5379987,74.1819976 75.802,74.666 C76.0220011,75.062002 76.132,75.6339963 76.132,76.382 C76.132,77.1300037 75.8240031,78.0979941 75.208,79.286 C74.2399952,81.3100101 72.953008,83.2019912 71.347,84.962 C69.740992,86.7220088 68.1240081,87.9759963 66.496,88.724 C65.8799969,88.9440011 65.374002,89.054 64.978,89.054 C64.581998,89.054 64.2630012,88.9880007 64.021,88.856 C63.7789988,88.7239993 63.5920007,88.5480011 63.46,88.328 C63.3279993,88.1079989 63.2400002,87.8880011 63.196,87.668 C63.1079996,87.3159982 63.1849988,86.9860015 63.427,86.678 C63.6690012,86.3699985 63.9439985,86.1060011 64.252,85.886 C64.6040018,85.6219987 65.0219976,85.3800011 65.506,85.16 C65.902002,84.9839991 66.3199978,84.7200018 66.76,84.368 C67.1120018,84.0599985 67.5079978,83.6750023 67.948,83.213 C68.3880022,82.7509977 68.8499976,82.1900033 69.334,81.53 C69.334,80.9139969 69.2570008,80.3310027 69.103,79.781 C68.9489992,79.2309972 68.674002,78.7800018 68.278,78.428 C67.1339943,77.8559971 65.9020066,77.9439963 64.582,78.692 C63.4379943,79.3080031 62.1400073,80.6279899 60.688,82.652 C59.2359927,84.6760101 57.6960081,87.9099778 56.068,92.354 C56.068,92.4420004 56.0460002,92.5299996 56.002,92.618 C55.9139996,92.8820013 55.8480002,93.1019991 55.804,93.278 C56.3320026,93.1459993 56.793998,93.0140007 57.19,92.882 C57.2340002,92.8379998 57.2999996,92.816 57.388,92.816 C57.5200007,92.7719998 57.9159967,92.6730008 58.576,92.519 C59.2360033,92.3649992 60.0389953,92.2110008 60.985,92.057 C61.9310047,91.9029992 62.9539945,91.8040002 64.054,91.76 C65.1540055,91.7159998 66.2099949,91.7819991 67.222,91.958 C68.1020044,92.0900007 68.8939965,92.3429981 69.598,92.717 C70.3020035,93.0910019 70.8739978,93.6299965 71.314,94.334 C71.4460007,94.5540011 71.5669994,94.7959987 71.677,95.06 C71.7870006,95.3240013 71.8859996,95.6099985 71.974,95.918 C71.974,96.0060004 71.9959998,96.0719998 72.04,96.116 C72.1720007,96.7320031 72.238,97.5569948 72.238,98.591 C72.238,99.6250052 72.0620018,100.845993 71.71,102.254 C71.313998,103.706007 70.6980042,105.245992 69.862,106.874 C69.2459969,108.194007 68.4100053,109.425994 67.354,110.57 C66.2979947,111.714006 64.9780079,112.593997 63.394,113.21 C63.0419982,113.342001 62.7120015,113.43 62.404,113.474 C62.0959985,113.518 61.8320011,113.54 61.612,113.54 C60.7759958,113.452 60.2370012,113.298001 59.995,113.078 C59.7529988,112.857999 59.6539998,112.638001 59.698,112.418 C59.7420002,112.153999 59.8739989,111.978 60.094,111.89 C61.2380057,111.185996 62.4589935,110.262006 63.757,109.118 C65.0550065,107.973994 66.2099949,106.566008 67.222,104.894 C65.813993,106.214007 64.208009,107.324995 62.404,108.227 C60.599991,109.129005 58.6420106,109.514001 56.53,109.382 C55.2979938,109.249999 54.1760051,108.898003 53.164,108.326 C52.2839956,107.841998 51.4700037,107.072005 50.722,106.016 C49.9739963,104.959995 49.5340007,103.486009 49.402,101.594 C48.4779954,101.814001 47.620004,101.869001 46.828,101.759 C46.035996,101.648999 45.3320031,101.286003 44.716,100.67 Z M54.88,98.822 C54.8359998,99.614004 54.8909992,100.383996 55.045,101.132 C55.1990008,101.880004 55.4849979,102.506997 55.903,103.013 C56.3210021,103.519003 56.9039963,103.870999 57.652,104.069 C58.4000037,104.267001 59.3679941,104.234001 60.556,103.97 C61.4800046,103.749999 62.4699947,103.387003 63.526,102.881 C64.5820053,102.374997 65.5609955,101.847003 66.463,101.297 C67.3650045,100.746997 68.112997,100.197003 68.707,99.647 C69.301003,99.0969972 69.598,98.6680015 69.598,98.36 L69.598,98.294 C69.598,98.0739989 69.5870001,97.8980007 69.565,97.766 C69.5429999,97.6339993 69.5100002,97.5020007 69.466,97.37 L69.466,97.304 C69.466,97.2599998 69.4550001,97.238 69.433,97.238 C69.4109999,97.238 69.4,97.2160002 69.4,97.172 C69.2239991,96.5559969 68.9160022,96.0720018 68.476,95.72 C68.0359978,95.3679982 67.5740024,95.1150008 67.09,94.961 C66.6059976,94.8069992 66.1440022,94.7190001 65.704,94.697 C65.2639978,94.6749999 64.9780007,94.664 64.846,94.664 C64.053996,94.6199998 63.1740048,94.7409986 62.206,95.027 C61.2379952,95.3130014 60.2920046,95.6759978 59.368,96.116 C58.4439954,96.5560022 57.5750041,97.0179976 56.761,97.502 C55.9469959,97.9860024 55.3200022,98.425998 54.88,98.822 Z M77.782,101.066 C76.6819945,100.933999 75.8130032,100.736001 75.175,100.472 C74.5369968,100.207999 74.0420018,99.9110016 73.69,99.581 C73.3379982,99.2509983 73.1180004,98.8770021 73.03,98.459 C72.9419996,98.0409979 72.9199998,97.5900024 72.964,97.106 C73.1400009,96.0059945 73.3489988,94.9830047 73.591,94.037 C73.8330012,93.0909953 74.1299982,92.1890043 74.482,91.331 C74.8340018,90.4729957 75.2189979,89.6150043 75.637,88.757 C76.0550021,87.8989957 76.5279974,86.9640051 77.056,85.952 C77.2760011,85.5999982 77.6169977,85.4679996 78.079,85.556 C78.5410023,85.6440004 78.8379993,85.7319996 78.97,85.82 C79.0580004,85.8640002 79.1789992,85.9189997 79.333,85.985 C79.4870008,86.0510003 79.6739989,86.1719991 79.894,86.348 C80.0700009,86.4800007 80.2899987,86.743998 80.554,87.14 C80.8180013,87.536002 80.7960015,87.9979974 80.488,88.526 C80.2679989,88.8780018 80.0260013,89.3179974 79.762,89.846 C79.4979987,90.3740026 79.2340013,90.9459969 78.97,91.562 C78.8819996,91.7820011 78.7940004,91.990999 78.706,92.189 C78.6179996,92.387001 78.5300004,92.5959989 78.442,92.816 C78.5740007,92.6399991 78.7829986,92.2990025 79.069,91.793 C79.3550014,91.2869975 79.7399976,90.7260031 80.224,90.11 C80.7080024,89.4939969 81.3019965,88.8670032 82.006,88.229 C82.7100035,87.5909968 83.5459952,87.0520022 84.514,86.612 C84.6020004,86.5239996 84.7119993,86.4690001 84.844,86.447 C84.9760007,86.4249999 85.0859996,86.3700004 85.174,86.282 C85.5260018,86.1499993 85.9109979,86.0620002 86.329,86.018 C86.7470021,85.9739998 87.1099985,86.1279982 87.418,86.48 C87.9020024,86.9640024 88.0670008,87.502997 87.913,88.097 C87.7589992,88.691003 87.5720011,89.185998 87.352,89.582 C87.1759991,89.978002 86.9780011,90.373998 86.758,90.77 C86.5379989,91.166002 86.3620007,91.5399982 86.23,91.892 C86.0979993,92.2440018 86.032,92.5519987 86.032,92.816 C86.032,93.0800013 86.1639987,93.2779993 86.428,93.41 C86.5160004,93.5420007 86.5819998,93.6959991 86.626,93.872 C86.6700002,94.0480009 86.5820011,94.1799996 86.362,94.268 C86.0979987,94.3560004 85.768002,94.4549994 85.372,94.565 C84.975998,94.6750005 84.5470023,94.7409999 84.085,94.763 C83.6229977,94.7850001 83.1830021,94.7520004 82.765,94.664 C82.3469979,94.5759996 82.0060013,94.3780015 81.742,94.07 C81.5659991,93.8499989 81.4120007,93.6190012 81.28,93.377 C81.1479993,93.1349988 81.3019978,92.5740044 81.742,91.694 L81.742,91.562 C81.6539996,91.5179998 81.5880002,91.5179998 81.544,91.562 C81.147998,91.958002 80.7300022,92.4969966 80.29,93.179 C79.8499978,93.8610034 79.4540018,94.597996 79.102,95.39 C78.7499982,96.182004 78.4970008,96.9849959 78.343,97.799 C78.1889992,98.6130041 78.2219989,99.3499967 78.442,100.01 C78.4860002,100.230001 78.4640004,100.427999 78.376,100.604 C78.2439993,100.824001 78.1120007,100.978 77.98,101.066 C77.8919996,101.11 77.8260002,101.11 77.782,101.066 Z M101.08,92.156 C100.595998,93.1680051 100.200002,94.2239945 99.892,95.324 C99.5399982,96.4680057 99.3749999,97.534995 99.397,98.525 C99.4190001,99.5150049 99.7379969,100.449996 100.354,101.33 L100.486,101.594 C100.574,101.770001 100.574,101.923999 100.486,102.056 C100.398,102.320001 100.112002,102.408 99.628,102.32 C98.7919958,102.32 98.0660031,102.166002 97.45,101.858 C96.9219974,101.637999 96.4380022,101.242003 95.998,100.67 C95.5579978,100.097997 95.338,99.2840053 95.338,98.228 C94.5899963,99.1960048 93.7100051,100.031996 92.698,100.736 C91.6859949,101.440004 90.5420064,101.660001 89.266,101.396 C88.3859956,101.219999 87.7590019,100.857003 87.385,100.307 C87.0109981,99.7569972 86.8020002,99.1080037 86.758,98.36 C86.7139998,97.6119963 86.8129988,96.7980044 87.055,95.918 C87.2970012,95.0379956 87.6049981,94.1800042 87.979,93.344 C88.3530019,92.5079958 88.7599978,91.7270036 89.2,91.001 C89.6400022,90.2749964 90.0359982,89.6920022 90.388,89.252 C91.0040031,88.4159958 91.7849953,87.602004 92.731,86.81 C93.6770047,86.017996 94.6779947,85.6879993 95.734,85.82 C95.9100009,85.8640002 96.1409986,85.9189997 96.427,85.985 C96.7130014,86.0510003 96.9879987,86.1939989 97.252,86.414 C97.7360024,86.7660018 98.0219996,87.2169972 98.11,87.767 C98.1980004,88.3170027 98.1540009,88.8999969 97.978,89.516 L97.978,89.582 L98.044,89.582 C98.440002,89.2739985 98.9019974,89.2299989 99.43,89.45 C99.4740002,89.4940002 99.5179998,89.516 99.562,89.516 C100.310004,89.912002 100.793999,90.4399967 101.014,91.1 C101.190001,91.4080015 101.212001,91.759998 101.08,92.156 Z M96.13,93.74 C96.2620007,93.2559976 96.4159991,92.7720024 96.592,92.288 C96.7680009,91.8039976 96.9659989,91.3200024 97.186,90.836 C96.9659989,91.0560011 96.7350012,91.2429992 96.493,91.397 C96.2509988,91.5510008 95.9540018,91.628 95.602,91.628 C95.205998,91.628 94.9860002,91.5620007 94.942,91.43 C94.8539996,91.2539991 94.8539996,91.0340013 94.942,90.77 L95.206,90.506 C95.3820009,90.2859989 95.5249994,89.9340024 95.635,89.45 C95.7450006,88.9659976 95.602002,88.5920013 95.206,88.328 C94.8539982,88.1079989 94.4360024,88.1519985 93.952,88.46 C93.4679976,88.7680015 92.9840024,89.2299969 92.5,89.846 C92.0159976,90.4620031 91.576002,91.165996 91.18,91.958 C90.783998,92.750004 90.5200007,93.4979965 90.388,94.202 C90.2559993,94.9060035 90.2999989,95.5219974 90.52,96.05 C90.7400011,96.5780026 91.2239963,96.8639998 91.972,96.908 C92.4560024,96.9520002 93.0609964,96.7430023 93.787,96.281 C94.5130036,95.8189977 95.1839969,95.3240026 95.8,94.796 C95.8880004,94.6199991 95.9429999,94.4440009 95.965,94.268 C95.9870001,94.0919991 96.0419996,93.9160009 96.13,93.74 Z M106.03,101.066 C104.929994,100.933999 104.061003,100.736001 103.423,100.472 C102.784997,100.207999 102.290002,99.9110016 101.938,99.581 C101.585998,99.2509983 101.366,98.8770021 101.278,98.459 C101.19,98.0409979 101.168,97.5900024 101.212,97.106 C101.388001,96.0059945 101.596999,94.9830047 101.839,94.037 C102.081001,93.0909953 102.377998,92.1890043 102.73,91.331 C103.082002,90.4729957 103.466998,89.6150043 103.885,88.757 C104.303002,87.8989957 104.775997,86.9640051 105.304,85.952 C105.524001,85.5999982 105.864998,85.4679996 106.327,85.556 C106.789002,85.6440004 107.085999,85.7319996 107.218,85.82 C107.306,85.8640002 107.426999,85.9189997 107.581,85.985 C107.735001,86.0510003 107.921999,86.1719991 108.142,86.348 C108.318001,86.4800007 108.537999,86.743998 108.802,87.14 C109.066001,87.536002 109.044002,87.9979974 108.736,88.526 C108.515999,88.8780018 108.274001,89.3179974 108.01,89.846 C107.745999,90.3740026 107.482001,90.9459969 107.218,91.562 C107.13,91.7820011 107.042,91.990999 106.954,92.189 C106.866,92.387001 106.778,92.5959989 106.69,92.816 C106.822001,92.6399991 107.096998,92.2990025 107.515,91.793 C107.933002,91.2869975 108.471997,90.7260031 109.132,90.11 C109.792003,89.4939969 110.539996,88.8670032 111.376,88.229 C112.212004,87.5909968 113.113995,87.0520022 114.082,86.612 C114.17,86.5239996 114.279999,86.4690001 114.412,86.447 C114.544001,86.4249999 114.654,86.3700004 114.742,86.282 C115.094002,86.1499993 115.478998,86.0620002 115.897,86.018 C116.315002,85.9739998 116.677998,86.1279982 116.986,86.48 C117.470002,86.9640024 117.635001,87.502997 117.481,88.097 C117.326999,88.691003 117.140001,89.185998 116.92,89.582 C116.787999,89.8900015 116.645001,90.2089983 116.491,90.539 C116.336999,90.8690016 116.172001,91.2099982 115.996,91.562 C115.863999,91.9140018 115.721001,92.2769981 115.567,92.651 C115.412999,93.0250019 115.270001,93.3879982 115.138,93.74 C114.741998,95.0600066 114.533,96.3469937 114.511,97.601 C114.489,98.8550063 114.785997,99.8559963 115.402,100.604 C115.49,100.736001 115.556,100.889999 115.6,101.066 C115.644,101.242001 115.556001,101.374 115.336,101.462 C115.071999,101.55 114.753002,101.648999 114.379,101.759 C114.004998,101.869001 113.587002,101.935 113.125,101.957 C112.662998,101.979 112.168003,101.946 111.64,101.858 C111.111997,101.77 110.584003,101.572002 110.056,101.264 C109.835999,101.131999 109.704,100.978001 109.66,100.802 C109.616,100.625999 109.572,100.494 109.528,100.406 C109.484,99.8779974 109.495,99.0530056 109.561,97.931 C109.627,96.8089944 109.923997,95.4340081 110.452,93.806 C110.54,93.4979985 110.649999,93.1680018 110.782,92.816 C110.914001,92.4639982 111.089999,92.090002 111.31,91.694 L111.31,91.562 C111.222,91.5179998 111.156,91.5179998 111.112,91.562 C110.627998,91.9140018 110.133003,92.3209977 109.627,92.783 C109.120997,93.2450023 108.670002,93.7839969 108.274,94.4 C107.657997,95.2800044 107.218001,96.3139941 106.954,97.502 C106.866,98.0300026 106.8,98.5139978 106.756,98.954 C106.712,99.3940022 106.69,99.7459987 106.69,100.01 C106.69,100.318002 106.668,100.516 106.624,100.604 C106.491999,100.824001 106.360001,100.978 106.228,101.066 C106.14,101.11 106.074,101.11 106.03,101.066 Z M129.592,94.73 C129.195998,96.0060064 128.965,97.2709937 128.899,98.525 C128.833,99.7790063 129.129997,100.867995 129.79,101.792 L129.922,102.056 C130.01,102.276001 130.032,102.43 129.988,102.518 C129.9,102.782001 129.614002,102.87 129.13,102.782 C128.293996,102.694 127.568003,102.474002 126.952,102.122 C126.423997,101.813998 125.940002,101.352003 125.5,100.736 C125.059998,100.119997 124.84,99.2840053 124.84,98.228 C124.091996,99.1960048 123.212005,100.031996 122.2,100.736 C121.187995,101.440004 120.044006,101.660001 118.768,101.396 C118.371998,101.352 118.042001,101.220001 117.778,101 L117.712,101 C117.624,100.956 117.569,100.923 117.547,100.901 C117.525,100.879 117.47,100.846 117.382,100.802 L117.25,100.67 C117.162,100.626 117.107,100.582 117.085,100.538 C117.063,100.494 117.008,100.428 116.92,100.34 C116.083996,99.3719952 115.775999,98.0520084 115.996,96.38 C116.216001,94.7079916 116.743996,93.0580081 117.58,91.43 C118.416004,89.8019919 119.460994,88.3720062 120.715,87.14 C121.969006,85.9079938 123.233994,85.2480004 124.51,85.16 L125.236,85.16 C125.412001,85.2040002 125.642999,85.2589997 125.929,85.325 C126.215001,85.3910003 126.489999,85.5339989 126.754,85.754 C126.974001,85.8860007 127.149999,86.0619989 127.282,86.282 C127.37,86.4140007 127.436,86.6559982 127.48,87.008 C127.524,87.3600018 127.59,87.6019993 127.678,87.734 C128.118002,86.5019938 128.634997,85.1930069 129.229,83.807 C129.823003,82.4209931 130.449997,81.123006 131.11,79.913 C131.770003,78.7029939 132.429997,77.6690043 133.09,76.811 C133.750003,75.9529957 134.387997,75.4580007 135.004,75.326 C135.092,75.2379996 135.399997,75.194 135.928,75.194 C136.236002,75.194 136.587998,75.2159998 136.984,75.26 C137.380002,75.3040002 137.764998,75.424999 138.139,75.623 C138.513002,75.821001 138.853998,76.1069981 139.162,76.481 C139.470002,76.8550019 139.668,77.3719967 139.756,78.032 L139.756,78.164 C139.756,78.2520004 139.734,78.3179998 139.69,78.362 C139.602,78.4500004 139.525,78.494 139.459,78.494 C139.393,78.494 139.316,78.5159998 139.228,78.56 C138.699997,78.6920007 138.018004,79.2199954 137.182,80.144 C136.345996,81.0680046 135.466005,82.2669926 134.542,83.741 C133.617995,85.2150074 132.705005,86.8979905 131.803,88.79 C130.900995,90.6820095 130.164003,92.6619897 129.592,94.73 Z M126.028,92.42 C126.116,91.011993 125.984002,90.0440026 125.632,89.516 C125.279998,88.9879974 124.972001,88.6360009 124.708,88.46 L124.642,88.46 C124.289998,88.2839991 123.960002,88.2509994 123.652,88.361 C123.343998,88.4710005 123.102001,88.5699996 122.926,88.658 C122.705999,88.7460004 122.453001,88.9329986 122.167,89.219 C121.880999,89.5050014 121.606001,89.845998 121.342,90.242 C121.077999,90.638002 120.836001,91.0779976 120.616,91.562 C120.395999,92.0460024 120.220001,92.5519974 120.088,93.08 C119.823999,94.3560064 119.812999,95.290997 120.055,95.885 C120.297001,96.479003 120.769996,96.8199996 121.474,96.908 C121.958002,96.9520002 122.562996,96.7430023 123.289,96.281 C124.015004,95.8189977 124.685997,95.3240026 125.302,94.796 L125.566,93.74 C125.61,93.6519996 125.654,93.5420007 125.698,93.41 L125.83,93.014 C125.83,92.9699998 125.841,92.9260002 125.863,92.882 C125.885,92.8379998 125.896,92.7720004 125.896,92.684 C125.94,92.6399998 125.962,92.5960002 125.962,92.552 C125.962,92.5079998 125.984,92.4640002 126.028,92.42 Z M143.617,101.792 L145.63,101.792 C145.718,101.792 145.816999,101.803 145.927,101.825 C146.037001,101.847 146.136,101.858 146.224,101.858 C146.796003,101.946 147.422997,102.165998 148.105,102.518 C148.787003,102.870002 149.215999,103.507995 149.392,104.432 C149.612001,105.840007 149.458003,107.060995 148.93,108.095 C148.401997,109.129005 147.896002,109.887998 147.412,110.372 C146.619996,111.164004 145.663006,111.867997 144.541,112.484 C143.418994,113.100003 142.110007,113.452 140.614,113.54 C138.897991,113.672001 137.622004,113.375004 136.786,112.649 C135.949996,111.922996 135.400001,111.032005 135.136,109.976 C134.871999,108.919995 134.816999,107.864005 134.971,106.808 C135.125001,105.751995 135.355998,104.982002 135.664,104.498 C134.915996,104.498 134.146004,104.563999 133.354,104.696 C132.649996,104.784 131.836005,104.915999 130.912,105.092 C129.987995,105.268001 128.998005,105.531998 127.942,105.884 C127.501998,106.060001 127.040002,106.235999 126.556,106.412 C126.115998,106.588001 125.610003,106.785999 125.038,107.006 C124.465997,107.226001 123.872003,107.489998 123.256,107.798 C122.859998,108.018001 122.277004,108.303998 121.507,108.656 C120.736996,109.008002 119.868005,109.370998 118.9,109.745 C117.931995,110.119002 116.909005,110.437999 115.831,110.702 C114.752995,110.966001 113.708005,111.098 112.696,111.098 C110.495989,111.142 108.967004,110.625005 108.109,109.547 C107.250996,108.468995 106.953999,107.138008 107.218,105.554 C107.262,105.466 107.338999,105.323001 107.449,105.125 C107.559001,104.926999 107.789998,104.915999 108.142,105.092 C108.406001,105.224001 108.768998,105.377999 109.231,105.554 C109.693002,105.730001 110.308996,105.851 111.079,105.917 C111.849004,105.983 112.772995,105.983 113.851,105.917 C114.929005,105.851 116.215993,105.664002 117.712,105.356 C119.428009,105.003998 120.912994,104.652002 122.167,104.3 C123.421006,103.947998 124.641994,103.629001 125.83,103.343 C127.018006,103.056999 128.249994,102.804001 129.526,102.584 C130.802006,102.363999 132.319991,102.188001 134.08,102.056 C134.784004,102.012 135.421997,102.034 135.994,102.122 C136.478002,102.21 136.917998,102.341999 137.314,102.518 C137.710002,102.694001 137.864,103.001998 137.776,103.442 C137.688,103.882002 137.534001,104.431997 137.314,105.092 C137.093999,105.752003 137.017,106.389997 137.083,107.006 C137.149,107.622003 137.478997,108.138998 138.073,108.557 C138.667003,108.975002 139.755992,109.184 141.34,109.184 C142.088004,109.14 142.835996,108.964002 143.584,108.656 C144.200003,108.391999 144.859996,108.007003 145.564,107.501 C146.268004,106.994997 146.927997,106.236005 147.544,105.224 C147.588,105.091999 147.61,104.960001 147.61,104.828 C147.61,104.563999 147.500001,104.41 147.28,104.366 C147.103999,104.322 146.675003,104.289 145.993,104.267 C145.310997,104.245 144.574004,104.321999 143.782,104.498 C142.989996,104.674001 142.253003,104.948998 141.571,105.323 C140.888997,105.697002 140.482001,106.257996 140.35,107.006 C140.262,107.270001 140.130001,107.358 139.954,107.27 C139.601998,107.182 139.195002,106.973002 138.733,106.643 C138.270998,106.312998 138.062,105.730004 138.106,104.894 C138.15,104.277997 138.413998,103.750002 138.898,103.31 C139.382002,102.869998 140.019996,102.518001 140.812,102.254 L140.746,102.254 C140.349998,102.166 140.152,101.990001 140.152,101.726 C140.152,101.593999 140.217999,101.462001 140.35,101.33 C140.394,101.242 140.46,101.176 140.548,101.132 C140.812001,100.999999 141.053999,100.824001 141.274,100.604 C141.362,100.471999 141.471999,100.329001 141.604,100.175 C141.736001,100.020999 141.846,99.8780007 141.934,99.746 C142.242002,99.349998 142.527999,98.8660029 142.792,98.294 C143.056001,97.7219971 143.297999,97.1720026 143.518,96.644 C143.782001,96.1159974 144.001999,95.5770027 144.178,95.027 C144.354001,94.4769972 144.529999,93.9380026 144.706,93.41 C145.014002,92.5299956 145.266999,91.7050038 145.465,90.935 C145.663001,90.1649961 145.827999,89.5380024 145.96,89.054 C146.048,88.7019982 146.125,88.3610016 146.191,88.031 C146.257,87.7009983 146.334,87.4260011 146.422,87.206 C146.554001,86.5899969 146.850998,86.2270005 147.313,86.117 C147.775002,86.0069994 148.115999,85.952 148.336,85.952 C148.820002,85.9960002 149.171999,86.0839993 149.392,86.216 C149.524001,86.2600002 149.787998,86.4029988 150.184,86.645 C150.580002,86.8870012 150.756,87.1839982 150.712,87.536 C150.668,87.6240004 150.503001,88.3609931 150.217,89.747 C149.930999,91.1330069 149.370004,92.8379899 148.534,94.862 C148.446,95.0820011 148.38,95.2689992 148.336,95.423 C148.292,95.5770008 148.226,95.7419991 148.138,95.918 C147.653998,96.9740053 147.159003,97.8539965 146.653,98.558 C146.146997,99.2620035 145.696002,99.8449977 145.3,100.307 C144.903998,100.769002 144.552002,101.120999 144.244,101.363 C143.935998,101.605001 143.738,101.748 143.65,101.792 L143.617,101.792 Z M155.596,80.276 C155.860001,80.7600024 155.761002,81.2109979 155.299,81.629 C154.836998,82.0470021 154.243004,82.453998 153.517,82.85 C152.790996,83.246002 152.065004,83.6199982 151.339,83.972 C150.612996,84.3240018 150.162001,84.6539985 149.986,84.962 C149.898,85.0500004 149.81,85.094 149.722,85.094 C149.634,85.094 149.469001,85.0830001 149.227,85.061 C148.984999,85.0389999 148.688002,84.9400009 148.336,84.764 C147.983998,84.5879991 147.720001,84.3460015 147.544,84.038 C147.367999,83.7739987 147.269,83.4550019 147.247,83.081 C147.225,82.7069981 147.389998,82.2120031 147.742,81.596 C148.138002,80.8919965 148.720996,80.3310021 149.491,79.913 C150.261004,79.4949979 151.041996,79.2310005 151.834,79.121 C152.626004,79.0109994 153.373996,79.054999 154.078,79.253 C154.782004,79.451001 155.287998,79.7919976 155.596,80.276 Z M165.034,93.146 C165.298001,93.3660011 165.254002,93.7179976 164.902,94.202 C164.549998,94.7300026 163.967004,95.4779952 163.153,96.446 C162.338996,97.4140048 161.371006,98.3269957 160.249,99.185 C159.126994,100.043004 157.906007,100.702998 156.586,101.165 C155.265993,101.627002 153.946007,101.638002 152.626,101.198 C151.393994,100.801998 150.580002,100.109005 150.184,99.119 C149.787998,98.128995 149.688999,97.0400059 149.887,95.852 C150.085001,94.6639941 150.513997,93.4540062 151.174,92.222 C151.834003,90.9899938 152.603996,89.8900048 153.484,88.922 C154.012003,88.3499971 154.594997,87.8110025 155.233,87.305 C155.871003,86.7989975 156.541996,86.3810016 157.246,86.051 C157.950004,85.7209983 158.653996,85.5450001 159.358,85.523 C160.062004,85.5009999 160.721997,85.687998 161.338,86.084 C161.734002,86.3480013 161.997999,86.7109977 162.13,87.173 C162.262001,87.6350023 162.284,88.1409972 162.196,88.691 C162.108,89.2410027 161.921001,89.8019971 161.635,90.374 C161.348999,90.9460029 161.008002,91.4959974 160.612,92.024 C160.303998,92.4640022 159.996002,92.8159987 159.688,93.08 L159.226,93.542 C159.093999,93.6740007 158.918001,93.7839996 158.698,93.872 C157.861996,94.4880031 157.037004,94.894999 156.223,95.093 C155.408996,95.291001 154.738003,95.4339996 154.21,95.522 C154.166,96.4460046 154.341998,97.0729983 154.738,97.403 C155.134002,97.7330016 155.650997,97.8870001 156.289,97.865 C156.927003,97.8429999 157.652996,97.6560018 158.467,97.304 C159.281004,96.9519982 160.061996,96.5450023 160.81,96.083 C161.558004,95.6209977 162.239997,95.1260026 162.856,94.598 C163.472003,94.0699974 163.933998,93.608002 164.242,93.212 C164.33,93.1239996 164.450999,93.0690001 164.605,93.047 C164.759001,93.0249999 164.901999,93.0579996 165.034,93.146 Z M154.474,92.882 C154.386,93.0580009 154.342,93.2229992 154.342,93.377 C154.342,93.5310008 154.298,93.6959991 154.21,93.872 C154.606002,93.6519989 154.946999,93.443001 155.233,93.245 C155.519001,93.046999 155.771999,92.8380011 155.992,92.618 L156.454,92.156 C156.938002,91.6719976 157.245999,91.2980013 157.378,91.034 C157.686002,90.5499976 157.927999,90.0550025 158.104,89.549 C158.280001,89.0429975 158.258001,88.6580013 158.038,88.394 C157.905999,88.1739989 157.675002,88.162999 157.345,88.361 C157.014998,88.559001 156.674002,88.8779978 156.322,89.318 C155.969998,89.7580022 155.618002,90.2969968 155.266,90.935 C154.913998,91.5730032 154.650001,92.2219967 154.474,92.882 Z M179.092,87.272 C179.268001,87.7120022 179.246001,88.129998 179.026,88.526 C178.805999,88.8780018 178.553001,89.3179974 178.267,89.846 C177.980999,90.3740026 177.728001,90.9459969 177.508,91.562 C177.331999,91.9140018 177.167001,92.2769981 177.013,92.651 C176.858999,93.0250019 176.738,93.3879982 176.65,93.74 C176.209998,95.0600066 175.99,96.3469937 175.99,97.601 C175.99,98.8550063 176.275997,99.8559963 176.848,100.604 C176.936,100.736001 177.013,100.889999 177.079,101.066 C177.145,101.242001 177.068001,101.374 176.848,101.462 C176.583999,101.55 176.254002,101.648999 175.858,101.759 C175.461998,101.869001 175.033002,101.935 174.571,101.957 C174.108998,101.979 173.614003,101.946 173.086,101.858 C172.557997,101.77 172.030003,101.572002 171.502,101.264 C171.193998,100.999999 171.04,100.714002 171.04,100.406 C170.996,100.053998 170.974,99.581003 170.974,98.987 C170.974,98.392997 171.039999,97.6560044 171.172,96.776 C170.687998,97.5240037 170.193003,98.2279967 169.687,98.888 C169.180997,99.5480033 168.664003,100.075998 168.136,100.472 C167.783998,100.780002 167.454002,100.956 167.146,101 C166.925999,101.132001 166.706001,101.198 166.486,101.198 C164.813992,101.330001 163.659003,100.758006 163.021,99.482 C162.382997,98.2059936 162.437996,96.3140125 163.186,93.806 C163.23,93.5419987 163.317999,93.3000011 163.45,93.08 C163.45,93.0359998 163.461,92.9920002 163.483,92.948 C163.505,92.9039998 163.516,92.8600002 163.516,92.816 C164.264004,90.7479897 164.978997,89.109006 165.661,87.899 C166.343003,86.6889939 166.728,86.0400004 166.816,85.952 C167.036001,85.5999982 167.365998,85.4679996 167.806,85.556 C168.246002,85.6440004 168.531999,85.7319996 168.664,85.82 C168.972002,85.9080004 169.279998,86.0839987 169.588,86.348 C169.764001,86.4800007 169.983999,86.743998 170.248,87.14 C170.512001,87.536002 170.512001,87.9979974 170.248,88.526 C170.027999,88.8780018 169.786001,89.3179974 169.522,89.846 C169.257999,90.3740026 168.994001,90.9459969 168.73,91.562 C168.642,91.7820011 168.554,91.990999 168.466,92.189 C168.378,92.387001 168.29,92.5959989 168.202,92.816 C168.202,92.8600002 168.191,92.882 168.169,92.882 C168.147,92.882 168.136,92.9039998 168.136,92.948 C168.092,93.1680011 168.015001,93.4869979 167.905,93.905 C167.794999,94.3230021 167.729,94.7409979 167.707,95.159 C167.685,95.5770021 167.718,95.9509983 167.806,96.281 C167.894,96.6110016 168.091998,96.7979998 168.4,96.842 C168.488,96.842 168.554,96.8200002 168.598,96.776 C168.906002,96.6439993 169.290998,96.3140026 169.753,95.786 C170.215002,95.2579974 170.687998,94.6310036 171.172,93.905 C171.656002,93.1789964 172.128998,92.4310038 172.591,91.661 C173.053002,90.8909961 173.459998,90.1980031 173.812,89.582 C174.076001,89.0979976 174.427998,88.5370032 174.868,87.899 C175.308002,87.2609968 175.791997,86.7000024 176.32,86.216 L176.386,86.216 C176.43,86.1279996 176.627998,85.9960009 176.98,85.82 C177.068,85.7759998 177.199999,85.7759998 177.376,85.82 C177.508001,85.8640002 177.661999,85.9189997 177.838,85.985 C178.014001,86.0510003 178.211999,86.1939989 178.432,86.414 C178.432,86.4580002 178.454,86.48 178.498,86.48 L178.63,86.546 L179.026,87.14 L179.026,87.206 C179.07,87.206 179.092,87.2279998 179.092,87.272 Z" id="Grand-jeu" fill="#D40016"></path>
            </g>
        </g>
    </g>
</svg>